# xmcd CD database file
#
# Track frame offsets:
#	150
#	17245
#	33837
#
# Disc length: 685 seconds
#
# Revision: 3
# Processed by: cddbd v1.5.2PL0 Copyright (c) Steve Scherf et al.
# Submitted via: CDex 1.70beta3
#
DISCID=1902ab03
DTITLE=ELLEGARDEN - Bare Foot
DYEAR=2001
DGENRE=J-Loud
TTITLE0=Bare Foot
TTITLE1=Raindrops
TTITLE2=A Thousand Smiles
EXTD=YEAR: 2001
EXTT0=
EXTT1=
EXTT2=
PLAYORDER=
